<svg width="25" height="26" fill="none" xmlns="http://www.w3.org/2000/svg"><path d="M20.313 23.448h-.133C4.828 22.568 2.648 9.658 2.344 5.718A2.329 2.329 0 013.618 3.45a2.35 2.35 0 01.882-.247h4.305a1.566 1.566 0 011.453.981l1.187 2.912a1.553 1.553 0 01-.343 1.682l-1.665 1.674a7.288 7.288 0 002.027 3.888 7.329 7.329 0 003.895 2.03l1.696-1.674a1.564 1.564 0 011.695-.32l2.945 1.177A1.56 1.56 0 0122.656 17v4.111c0 .62-.247 1.214-.686 1.652a2.348 2.348 0 01-1.657.684zM4.687 4.76a.783.783 0 00-.78.78v.06c.359 4.61 2.663 15.511 16.359 16.29a.782.782 0 00.828-.732V17l-2.946-1.176-2.242 2.22-.375-.047c-6.797-.85-7.719-7.624-7.719-7.694l-.046-.373 2.218-2.235L8.812 4.76H4.687z" fill="#fff"/></svg>