<svg width="25" height="26" fill="none" xmlns="http://www.w3.org/2000/svg"><path d="M12.399 6.744a3.132 3.132 0 00-2.887 1.923 3.105 3.105 0 00.677 3.394 3.127 3.127 0 003.406.675 3.123 3.123 0 001.402-1.147 3.107 3.107 0 00-.39-3.932 3.134 3.134 0 00-2.208-.913zm0 4.672a1.566 1.566 0 01-1.444-.961 1.553 1.553 0 01.339-1.697 1.564 1.564 0 012.667 1.1 1.565 1.565 0 01-1.562 1.558z" fill="#fff"/><path d="M18.404 3.869A8.511 8.511 0 007.05 3.28a8.441 8.441 0 00-1.767 11.193l5.903 9.033a1.445 1.445 0 001.212.654 1.45 1.45 0 001.211-.654l5.904-9.033a8.442 8.442 0 00-1.11-10.605zm-.199 9.755L12.4 22.508l-5.807-8.884A6.922 6.922 0 017.5 4.97a6.931 6.931 0 014.9-2.023 6.95 6.95 0 014.9 2.023c2.302 2.295 2.684 5.934.906 8.654z" fill="#fff"/></svg>