<svg width="50" height="50" fill="none" xmlns="http://www.w3.org/2000/svg"><g clip-path="url(#clip0)"><path d="M49.006 8.886a1.476 1.476 0 00-2.417-.5l-7.617 7.616-4.095-.88-.88-4.095 7.617-7.617a1.477 1.477 0 00-.5-2.417 14.079 14.079 0 00-15.155 3.133 14.033 14.033 0 00-3.802 6.954 14.116 14.116 0 00.194 6.791L2.025 38.198A6.867 6.867 0 000 43.086c0 1.846.719 3.583 2.025 4.888A6.867 6.867 0 006.913 50a6.868 6.868 0 004.889-2.025l20.326-20.326a14.12 14.12 0 006.791.194 14.034 14.034 0 006.954-3.802 14.078 14.078 0 003.133-15.154zm-5.221 13.066c-3.013 3.012-7.557 4.043-11.578 2.626a1.477 1.477 0 00-1.535.349L9.712 45.886a3.933 3.933 0 01-2.799 1.16 3.933 3.933 0 01-2.8-1.16 3.934 3.934 0 01-1.16-2.8c0-1.058.412-2.052 1.16-2.8l20.96-20.96c.401-.401.537-.998.348-1.534-1.417-4.021-.386-8.565 2.626-11.578a11.123 11.123 0 019.696-3.11L31.34 9.507a1.477 1.477 0 00-.4 1.355l1.25 5.813a1.477 1.477 0 001.133 1.134l5.814 1.25c.49.105 1-.045 1.355-.4l6.403-6.403a11.125 11.125 0 01-3.11 9.696z" fill="#fff"/></g><defs><clipPath id="clip0"><path fill="#fff" d="M0 0h50v50H0z"/></clipPath></defs></svg>