<svg width="50" height="50" fill="none" xmlns="http://www.w3.org/2000/svg"><path d="M42.678 7.322C37.956 2.6 31.678 0 25 0 18.322 0 12.044 2.6 7.322 7.322A24.837 24.837 0 000 25c0 6.678 2.6 12.956 7.322 17.678A24.837 24.837 0 0025 50c6.678 0 12.956-2.6 17.678-7.322C47.4 37.956 50 31.678 50 25c0-6.678-2.6-12.956-7.322-17.678zM25 47.052C12.84 47.051 2.949 37.158 2.949 25 2.949 12.84 12.84 2.949 25 2.949c12.159 0 22.051 9.892 22.051 22.05 0 12.16-9.892 22.052-22.051 22.052z" fill="#fff"/><path d="M25 5.832C14.43 5.832 5.832 14.431 5.832 25c0 10.57 8.599 19.168 19.168 19.168 10.57 0 19.168-8.599 19.168-19.168 0-10.57-8.599-19.168-19.168-19.168zM37.444 35.36l-1.478-1.478a1.474 1.474 0 00-2.085 2.085l1.478 1.479a16.127 16.127 0 01-8.885 3.687v-2.098a1.475 1.475 0 00-2.948 0v2.098a16.128 16.128 0 01-8.885-3.687l1.478-1.479a1.474 1.474 0 00-2.085-2.085l-1.479 1.478a16.127 16.127 0 01-3.687-8.885h2.098a1.475 1.475 0 000-2.948H8.868a16.127 16.127 0 013.688-8.885l1.478 1.478a1.47 1.47 0 002.085 0 1.474 1.474 0 000-2.085l-1.479-1.478a16.128 16.128 0 018.885-3.688v2.098a1.475 1.475 0 002.95 0V8.868c3.36.305 6.429 1.64 8.884 3.688l-1.478 1.478a1.474 1.474 0 002.085 2.085l1.478-1.478a16.127 16.127 0 013.688 8.885h-2.098a1.475 1.475 0 000 2.948h2.098a16.124 16.124 0 01-3.688 8.885z" fill="#fff"/><path d="M33.078 23.525H25c-.391 0-.766.156-1.043.432l-5.711 5.712a1.474 1.474 0 002.085 2.085l5.28-5.28h7.467a1.474 1.474 0 000-2.949z" fill="#fff"/></svg>