<svg width="25" height="25" fill="none" xmlns="http://www.w3.org/2000/svg"><path d="M21.052 8.552a8.552 8.552 0 00-17.104 0c-1.22.152-2.375.95-2.375 2.803v4.466c0 2.09 1.463 2.85 2.85 2.85h1.378a.475.475 0 00.475-.474V8.998a.475.475 0 00-.475-.475h-.903a7.602 7.602 0 0115.204 0h-.903a.475.475 0 00-.475.475v9.184c0 .263.213.475.475.475h.903c-.133 3.264-1.701 4.03-4.832 4.167v-.318a.95.95 0 00-.95-.95h-2.99a.95.95 0 00-.95.95v1.544c0 .525.425.95.95.95h2.998a.95.95 0 00.95-.95v-.276c3.012-.137 5.616-.76 5.773-5.145 1.22-.152 2.375-.95 2.375-2.803V11.36c0-1.863-1.15-2.656-2.375-2.808zM5.326 9.44v8.267h-.927c-.703 0-1.9-.247-1.9-1.9V11.34c0-1.64 1.183-1.9 1.9-1.9h.927zm9.003 13.892v.723h-2.998V22.51h2.998v.821zm8.148-7.511c0 1.64-1.183 1.9-1.9 1.9h-.903V9.474h.927c.703 0 1.9.247 1.9 1.9l-.024 4.447z" fill="#0297F1"/></svg>