<svg width="35" height="36" fill="none" xmlns="http://www.w3.org/2000/svg"><path fill-rule="evenodd" clip-rule="evenodd" d="M17.5.299C7.835.299 0 8.108 0 17.74s7.835 17.441 17.5 17.441S35 27.374 35 17.741 27.165.299 17.5.299zm-3.848 8.196c.996-.046 1.314-.057 3.849-.057h-.003c2.535 0 2.852.011 3.848.057.994.045 1.672.202 2.267.432a4.564 4.564 0 011.653 1.072c.52.517.838 1.036 1.077 1.648.23.592.387 1.268.434 2.258.045.992.056 1.31.056 3.836s-.011 2.842-.056 3.835c-.047.99-.204 1.666-.434 2.257a4.563 4.563 0 01-1.077 1.648 4.567 4.567 0 01-1.652 1.074c-.594.23-1.273.387-2.267.432-.995.045-1.312.056-3.847.056s-2.853-.01-3.848-.056c-.994-.045-1.672-.202-2.266-.432a4.57 4.57 0 01-1.653-1.074 4.556 4.556 0 01-1.076-1.648c-.23-.591-.388-1.267-.434-2.257-.045-.993-.056-1.309-.056-3.835 0-2.527.011-2.844.056-3.836.045-.99.202-1.666.433-2.258.24-.612.559-1.13 1.078-1.648a4.572 4.572 0 011.653-1.072c.593-.23 1.272-.387 2.265-.432z" fill="#fff"/><path fill-rule="evenodd" clip-rule="evenodd" d="M16.664 10.115h.836c2.493 0 2.788.008 3.772.053.91.042 1.404.193 1.733.32.436.17.746.37 1.073.696.326.326.529.636.698 1.07.128.328.28.82.322 1.727.044.98.054 1.275.054 3.757 0 2.483-.01 2.778-.054 3.758-.042.907-.194 1.4-.322 1.727a2.888 2.888 0 01-.698 1.069 2.888 2.888 0 01-1.073.695c-.328.128-.823.28-1.733.321-.984.045-1.28.054-3.771.054-2.492 0-2.788-.01-3.772-.054-.91-.042-1.403-.193-1.733-.32a2.892 2.892 0 01-1.073-.697 2.883 2.883 0 01-.698-1.069c-.128-.327-.28-.82-.322-1.726-.045-.981-.054-1.276-.054-3.76s.01-2.777.054-3.758c.042-.907.194-1.399.322-1.727a2.88 2.88 0 01.698-1.07 2.898 2.898 0 011.073-.696c.33-.127.823-.279 1.733-.32.861-.04 1.195-.05 2.935-.053v.003zm5.819 1.544c-.618 0-1.12.5-1.12 1.116 0 .616.502 1.116 1.12 1.116.618 0 1.12-.5 1.12-1.116 0-.616-.502-1.116-1.12-1.116zm-9.775 6.082c0-2.639 2.146-4.777 4.793-4.777a4.785 4.785 0 014.792 4.777c0 2.638-2.145 4.776-4.792 4.776s-4.793-2.138-4.793-4.776z" fill="#fff"/><path d="M17.5 14.64a3.106 3.106 0 013.112 3.1 3.107 3.107 0 01-3.111 3.102 3.106 3.106 0 01-3.111-3.101c0-1.713 1.393-3.1 3.11-3.1z" fill="#fff"/></svg>