<svg width="50" height="50" fill="none" xmlns="http://www.w3.org/2000/svg"><path d="M46.878 23.552h-26.58c-.8 0-1.455.655-1.455 1.455s.655 1.456 1.455 1.456h26.58c.8 0 1.455-.655 1.455-1.456 0-.8-.64-1.455-1.455-1.455zM8.435 18.239a6.765 6.765 0 00-6.769 6.768 6.765 6.765 0 006.77 6.769 6.765 6.765 0 006.768-6.769 6.765 6.765 0 00-6.769-6.768zm0 10.626a3.855 3.855 0 01-3.857-3.858 3.855 3.855 0 013.857-3.857 3.864 3.864 0 013.857 3.857 3.864 3.864 0 01-3.857 3.858zM46.878 5.357h-26.58c-.8 0-1.455.655-1.455 1.455s.655 1.456 1.455 1.456h26.58c.8 0 1.455-.655 1.455-1.456 0-.8-.64-1.455-1.455-1.455zM8.435 0a6.765 6.765 0 00-6.769 6.769 6.765 6.765 0 006.77 6.768 6.765 6.765 0 006.768-6.768c0-3.727-3.028-6.754-6.769-6.769zm0 10.64a3.855 3.855 0 01-3.857-3.857 3.864 3.864 0 013.857-3.857 3.855 3.855 0 013.857 3.857 3.864 3.864 0 01-3.857 3.857zm38.443 31.107h-26.58c-.8 0-1.455.655-1.455 1.455s.655 1.456 1.455 1.456h26.58c.8 0 1.455-.655 1.455-1.456 0-.8-.64-1.455-1.455-1.455zM8.435 36.463a6.765 6.765 0 00-6.769 6.768A6.765 6.765 0 008.436 50a6.765 6.765 0 006.768-6.769 6.774 6.774 0 00-6.769-6.768zm0 10.64a3.855 3.855 0 01-3.857-3.857 3.855 3.855 0 013.857-3.857 3.855 3.855 0 013.857 3.857 3.864 3.864 0 01-3.857 3.857z" fill="#fff"/></svg>