<svg width="35" height="36" fill="none" xmlns="http://www.w3.org/2000/svg"><path fill-rule="evenodd" clip-rule="evenodd" d="M17.5 35.182C7.835 35.182 0 27.374 0 17.741S7.835.299 17.5.299 35 8.108 35 17.74s-7.835 17.441-17.5 17.441zm.244-18.42c1.433 0 8.4-3.905 8.4-3.905l.011-.698c0-.77-.627-1.395-1.402-1.395H10.735c-.774 0-1.402.625-1.402 1.395v.622s7.044 3.98 8.41 3.98zm-8.4-1.812s7.033 3.73 8.4 3.73c1.498 0 8.4-3.73 8.4-3.73l.011 8.372c0 .77-.627 1.395-1.402 1.395H10.735a1.399 1.399 0 01-1.402-1.395l.012-8.372z" fill="#fff"/></svg>