<svg width="25" height="25" fill="none" xmlns="http://www.w3.org/2000/svg"><g clip-path="url(#clip0)" fill="#0297F1"><path d="M19.758 15.487c-.512-.533-1.13-.818-1.784-.818-.648 0-1.271.28-1.804.813l-1.667 1.662c-.138-.074-.275-.143-.407-.211-.19-.095-.37-.185-.522-.28-1.562-.992-2.981-2.285-4.343-3.957-.66-.834-1.102-1.536-1.424-2.248.432-.396.833-.807 1.224-1.203.148-.148.295-.3.443-.449 1.108-1.108 1.108-2.543 0-3.65l-1.44-1.441c-.164-.164-.333-.333-.491-.502a24.91 24.91 0 00-.992-.981c-.512-.507-1.124-.776-1.768-.776-.643 0-1.266.27-1.794.776l-.01.01-1.794 1.81A3.86 3.86 0 00.04 6.496c-.127 1.54.327 2.976.675 3.915.855 2.306 2.132 4.443 4.037 6.733 2.31 2.76 5.091 4.938 8.268 6.474 1.213.575 2.833 1.256 4.643 1.372.111.005.227.01.333.01 1.218 0 2.242-.438 3.044-1.308.005-.01.016-.016.021-.027.274-.332.591-.633.924-.955.226-.216.459-.443.686-.68.522-.544.796-1.177.796-1.826 0-.654-.28-1.282-.812-1.81l-2.897-2.907zm1.889 5.556c-.005 0-.005.005 0 0-.206.222-.417.422-.644.644-.343.327-.691.67-1.018 1.055-.533.57-1.161.839-1.984.839-.08 0-.164 0-.243-.005-1.567-.1-3.023-.713-4.115-1.235-2.987-1.446-5.61-3.498-7.788-6.1-1.8-2.168-3.003-4.173-3.8-6.326-.49-1.314-.67-2.338-.59-3.303.052-.617.29-1.13.728-1.567l1.799-1.8c.258-.242.533-.374.802-.374.332 0 .601.2.77.37l.016.015c.322.3.628.612.95.945.163.168.332.337.501.511l1.44 1.44c.56.56.56 1.077 0 1.637-.152.153-.3.306-.453.453A27.54 27.54 0 016.693 9.53c-.01.01-.02.016-.026.026-.454.454-.37.897-.274 1.198l.016.047c.374.908.902 1.763 1.704 2.781l.005.005c1.456 1.794 2.992 3.193 4.686 4.264.216.137.438.248.649.353.19.095.369.185.522.28.021.01.042.026.063.037.18.09.348.132.523.132.438 0 .712-.275.802-.364l1.804-1.805c.18-.18.464-.396.797-.396.327 0 .596.206.76.386l.01.01 2.908 2.907c.543.539.543 1.093.005 1.652zM13.51 5.947a6.69 6.69 0 013.641 1.889 6.725 6.725 0 011.89 3.64.707.707 0 00.701.592c.042 0 .08-.006.121-.01a.713.713 0 00.586-.824 8.138 8.138 0 00-2.285-4.406 8.138 8.138 0 00-4.405-2.285.716.716 0 00-.824.58.705.705 0 00.576.824zm11.461 5.081a13.389 13.389 0 00-3.762-7.255A13.389 13.389 0 0013.954.011a.71.71 0 00-.818.58.716.716 0 00.586.824 11.989 11.989 0 016.484 3.36 11.954 11.954 0 013.361 6.485.708.708 0 00.702.591c.042 0 .08-.005.122-.01a.699.699 0 00.58-.813z"/></g><defs><clipPath id="clip0"><path fill="#fff" d="M0 0h25v25H0z"/></clipPath></defs></svg>