<svg width="25" height="25" fill="none" xmlns="http://www.w3.org/2000/svg"><path d="M21.406 11.216a.34.34 0 01-.125-.024l-2.547-1.014a.337.337 0 01-.016-.62 1.077 1.077 0 00.625-.99 1.073 1.073 0 00-1.5-.97 1.074 1.074 0 00-.65.984c0 .136.028.271.08.397a.337.337 0 01-.435.446L14.28 8.41a.337.337 0 01-.19-.439l.788-1.981a1.757 1.757 0 01-1.27-.556 1.749 1.749 0 012.472-2.473l.79-1.984a.338.338 0 01.44-.189l6.381 2.537a1.004 1.004 0 01.562 1.301l-2.534 6.376a.338.338 0 01-.314.215zm-1.858-1.44l1.668.663 2.41-6.062a.331.331 0 00-.184-.424L17.374 1.54l-.888 2.238a.338.338 0 01-.622.014 1.073 1.073 0 10-.572 1.44.338.338 0 01.443.437l-.89 2.236 1.672.665a1.752 1.752 0 113.03 1.205v.001zm.688 4.842a.338.338 0 11-.003-.675h.003a.338.338 0 110 .675zm-3.503.001a.338.338 0 01-.003-.676h.003a.338.338 0 010 .676z" fill="#0297F1"/><path d="M16.73 14.62a.338.338 0 110-.676.338.338 0 010 .676z" fill="#0297F1"/><path d="M19.381 24.237H1.867a1.191 1.191 0 01-1.191-1.189V5.531a1.19 1.19 0 011.191-1.185h8.754a.338.338 0 01.338.338v3.502a.338.338 0 01-.575.243 1.462 1.462 0 100 2.112.339.339 0 01.575.242v3.162h2.53a2.141 2.141 0 113.878 0h2.862a.338.338 0 01.338.338v8.765a1.188 1.188 0 01-1.186 1.189zM1.867 5.02a.514.514 0 00-.516.51v17.517a.515.515 0 00.516.513h17.514a.512.512 0 00.51-.513v-8.43h-3.158a.339.339 0 01-.244-.57 1.463 1.463 0 10-2.523-1.01c-.003.376.143.737.406 1.005a.338.338 0 01-.24.575H10.62a.338.338 0 01-.338-.338v-2.861a2.138 2.138 0 110-3.873V5.021H1.867z" fill="#0297F1"/><path d="M10.624 18.126a.338.338 0 01-.338-.338v-3.504a.336.336 0 01.336-.34.338.338 0 01.34.336v3.507a.338.338 0 01-.338.34zm.003 6.097a.338.338 0 01-.338-.338v-3.508a.338.338 0 01.676 0v3.508a.338.338 0 01-.338.338z" fill="#0297F1"/><path d="M10.624 14.619H7.128a.338.338 0 110-.676h3.496a.338.338 0 010 .676zm-6.092.001H1.023a.338.338 0 010-.675h3.51a.338.338 0 110 .675z" fill="#0297F1"/><path d="M5.823 17.672a2.136 2.136 0 01-1.533-3.625.338.338 0 01.485.471 1.46 1.46 0 002.082 2.05 1.46 1.46 0 00.43-1.034 1.435 1.435 0 00-.409-1.013.338.338 0 11.482-.473c.39.397.606.932.603 1.488a2.142 2.142 0 01-2.14 2.136zm6.055 3.554a2.131 2.131 0 01-1.486-.603.338.338 0 11.469-.486 1.46 1.46 0 10.012-2.116.338.338 0 01-.585-.23v-.002a.34.34 0 01.104-.243 2.14 2.14 0 111.486 3.68z" fill="#0297F1"/></svg>