<svg width="35" height="36" fill="none" xmlns="http://www.w3.org/2000/svg"><path fill-rule="evenodd" clip-rule="evenodd" d="M0 17.74c0 9.634 7.835 17.442 17.5 17.442S35 27.374 35 17.741 27.165.299 17.5.299 0 8.108 0 17.74zm14.292 7.995l.297-4.446 8.115-7.299c.356-.315-.078-.469-.55-.183l-10.015 6.297-4.326-1.345c-.934-.285-.941-.925.21-1.385l16.856-6.478c.77-.349 1.513.184 1.22 1.358l-2.871 13.483c-.2.958-.782 1.188-1.586.745l-4.373-3.22-2.102 2.037-.02.02c-.235.227-.43.416-.855.416z" fill="#fff"/></svg>