<svg width="11" height="13" fill="none" xmlns="http://www.w3.org/2000/svg"><path d="M6.542 12.625H4.458c-.5 0-1.041-.384-1.041-1.23v-1.374c0-.61-.264-1.169-.705-1.494A4.66 4.66 0 01.814 4.692C.86 2.212 2.932.162 5.43.125 6.68.131 7.9.586 8.802 1.477a4.615 4.615 0 011.386 3.307 4.67 4.67 0 01-1.882 3.73c-.453.337-.723.903-.723 1.514v1.555c0 .575-.467 1.042-1.041 1.042zM5.499 1.167h-.053c-1.91.028-3.554 1.652-3.59 3.546A3.615 3.615 0 003.33 7.689c.706.52 1.128 1.392 1.128 2.332v1.375c0 .155.038.206.038.206l2.046-.019v-1.555c0-.938.427-1.817 1.142-2.35a3.574 3.574 0 001.462-2.894c0-.97-.383-1.882-1.076-2.565a3.63 3.63 0 00-2.571-1.052z" fill="#0297F1"/></svg>