<svg width="25" height="25" fill="none" xmlns="http://www.w3.org/2000/svg"><path d="M4.688 25a.52.52 0 01-.52-.52v-4.688H2.603A2.607 2.607 0 010 17.187V2.604A2.607 2.607 0 012.604 0h19.792A2.607 2.607 0 0125 2.604v14.584a2.607 2.607 0 01-2.604 2.604H10.11l-5.056 5.056a.52.52 0 01-.367.152zM2.603 1.042c-.861 0-1.562.7-1.562 1.562v14.584c0 .861.7 1.562 1.562 1.562h2.083a.52.52 0 01.521.52v3.952l4.32-4.319a.521.521 0 01.368-.153h12.5c.861 0 1.562-.701 1.562-1.563V2.604c0-.861-.7-1.562-1.562-1.562H2.604z" fill="#0297F1"/></svg>