<svg width="35" height="36" fill="none" xmlns="http://www.w3.org/2000/svg"><path fill-rule="evenodd" clip-rule="evenodd" d="M17.5.299C7.835.299 0 8.108 0 17.74s7.835 17.441 17.5 17.441S35 27.374 35 17.741 27.165.299 17.5.299zm1.425 22.948c-.173.18-.51.218-.51.218H17.3s-2.462.144-4.63-2.064c-2.365-2.409-4.453-7.188-4.453-7.188s-.12-.314.01-.465c.147-.17.548-.181.548-.181l2.667-.017s.251.04.431.17a.817.817 0 01.232.306s.43 1.066 1.001 2.031c1.115 1.884 1.634 2.296 2.012 2.094.551-.294.386-2.663.386-2.663s.01-.86-.278-1.242c-.222-.297-.642-.383-.828-.408-.15-.02.096-.36.416-.513.48-.23 1.327-.243 2.329-.233.78.008 1.005.055 1.31.127.708.168.686.703.638 1.859-.014.345-.031.746-.031 1.21 0 .104-.003.215-.006.329-.017.592-.036 1.27.363 1.522.204.129.704.019 1.954-2.057.592-.984 1.036-2.14 1.036-2.14s.098-.207.248-.296c.155-.09.363-.062.363-.062l2.806-.017s.844-.1.98.274c.143.39-.315 1.303-1.462 2.799-1.087 1.418-1.617 1.94-1.568 2.402.035.338.38.643 1.04 1.243 1.378 1.252 1.747 1.91 1.836 2.069l.017.029c.618 1.003-.686 1.082-.686 1.082l-2.493.034s-.535.103-1.24-.37c-.37-.248-.73-.653-1.074-1.038-.524-.589-1.01-1.133-1.423-1.004-.695.216-.674 1.68-.674 1.68s.006.314-.152.48z" fill="#fff"/></svg>