<svg width="50" height="50" fill="none" xmlns="http://www.w3.org/2000/svg"><g clip-path="url(#clip0)" fill="#fff"><path d="M39.594 39.863a.969.969 0 10-1.176 1.54l1.655 1.265a.966.966 0 001.307-.12l3.165-3.494a.969.969 0 00-1.437-1.301l-2.566 2.834-.948-.724z"/><path d="M49.882 34.69a.969.969 0 00-.884-.943c-2.305-.201-5.141-1.75-7.226-3.944a.97.97 0 00-1.404 0 14.668 14.668 0 01-3.144 2.497c-1.967-2.196-4.388-3.813-7.226-4.832a20.193 20.193 0 00-.746-.251c2.4-2.393 4.014-5.539 4.014-8.36v-1.523a3.21 3.21 0 001.93-2.94 3.21 3.21 0 00-2.066-2.995 11.953 11.953 0 00-8.584-10.244A1.456 1.456 0 0023.124 0h-3.512c-.674 0-1.24.462-1.404 1.086a12.047 12.047 0 00-5.98 3.745A11.98 11.98 0 009.38 11.4a3.208 3.208 0 00-2.067 2.994 3.21 3.21 0 001.933 2.942v1.522c0 2.819 1.614 5.965 4.014 8.36a19.97 19.97 0 00-.775.262c-3.176 1.145-5.828 3.04-7.905 5.66-1.998 2.52-3.417 5.63-4.22 9.247-.286 1.292-.5 2.916.38 4.014.861 1.072 2.402 1.21 3.648 1.21h6.338a.969.969 0 000-1.939H4.389c-1.16 0-1.878-.163-2.137-.484-.273-.341-.273-1.143 0-2.382 1.008-4.536 3.47-10.086 9.402-12.889-.182 3.273 1.591 5.413 2.719 6.771a.97.97 0 001.42.076l5.462-5.31 5.463 5.31a.969.969 0 001.421-.077c1.126-1.359 2.897-3.5 2.716-6.766a15.446 15.446 0 014.55 3.268c-.781.303-1.549.496-2.265.558a.969.969 0 00-.884.943c-.081 3.464.496 5.946 2.058 8.851.013.025.541.97 1.364 2.132h-16.18a.969.969 0 000 1.937h17.719c1.168 1.291 2.546 2.39 3.852 2.39 3.152 0 6.72-6.394 6.754-6.458 1.56-2.906 2.137-5.387 2.06-8.851zm-18.73-23.5h-5.335c-1.008-2.633-1.198-4.804-1.233-7.991a10.018 10.018 0 016.568 7.99zM20.096 1.938h2.543c.006 3.75.102 6.29 1.117 9.252h-4.774c1.013-2.962 1.108-5.502 1.114-9.252zm-1.944 1.184c-.032 3.23-.217 5.414-1.23 8.068h-5.563c.553-3.72 3.226-6.887 6.793-8.068zM10.52 13.128h6.482c.057.046.112.052.159 0h14.832a1.267 1.267 0 010 2.534H10.52a1.268 1.268 0 010-2.534zm.664 5.729v-1.258h20.145v1.258c0 3.694-3.579 8.263-7.659 9.777-1.785.664-3.052.663-4.842-.002-4.072-1.52-7.644-6.089-7.644-9.775zm4.022 15.777c-1.003-1.31-1.969-3.028-1.505-5.524a18.69 18.69 0 011.327-.375 13.011 13.011 0 003.124 1.713c.351.13.69.238 1.02.328l-3.966 3.858zm12.1 0l-3.968-3.86c.326-.088.66-.194 1.007-.323a13.012 13.012 0 003.138-1.716c.453.11.895.235 1.326.375.466 2.491-.5 4.212-1.502 5.523zm18.81 7.992c-1.145 2.138-3.829 5.436-5.046 5.436s-3.9-3.298-5.047-5.438c-1.28-2.38-1.806-4.366-1.835-7.07 1.046-.198 2.134-.588 3.204-1.133a16.326 16.326 0 003.678-2.588c2.063 1.925 4.576 3.283 6.88 3.722-.03 2.703-.555 4.69-1.833 7.07z"/><path d="M15.113 45.672a.969.969 0 000 1.938h.005a.967.967 0 00.966-.969.971.971 0 00-.971-.969z"/></g><defs><clipPath id="clip0"><path fill="#fff" d="M0 0h50v50H0z"/></clipPath></defs></svg>